<svg width="75" height="75" fill="none" xmlns="http://www.w3.org/2000/svg"><g clip-path="url(#a)"><path d="M37.5 0C16.79 0 0 16.79 0 37.5S16.79 75 37.5 75 75 58.21 75 37.5 58.21 0 37.5 0Zm18.419 25.69-6.156 29c-.454 2.057-1.679 2.557-3.388 1.588L37 49.372l-4.519 4.356a2.373 2.373 0 0 1-1.875.922h-.015l.665-9.544 17.375-15.694c.75-.665-.169-1.043-1.165-.378L26 42.554l-9.25-2.888c-2-.635-2.056-2 .422-2.982l36.144-13.93c1.68-.613 3.143.4 2.6 2.94l.003-.003Z" fill="#F8F8F8"/></g><defs><clipPath id="a"><path fill="#fff" d="M0 0h75v75H0z"/></clipPath></defs></svg>